<svg xmlns="http://www.w3.org/2000/svg" xmlns:xlink="http://www.w3.org/1999/xlink" width="500" zoomAndPan="magnify" viewBox="0 0 375 374.999991" height="500" preserveAspectRatio="xMidYMid meet" version="1.0"><defs><clipPath id="fc3b9fac09"><path d="M 82.527344 144 L 115 144 L 115 231 L 82.527344 231 Z M 82.527344 144 " clip-rule="nonzero"/></clipPath><clipPath id="3d720dafda"><path d="M 123 94.207031 L 172 94.207031 L 172 280.957031 L 123 280.957031 Z M 123 94.207031 " clip-rule="nonzero"/></clipPath></defs><g clip-path="url(#fc3b9fac09)"><path fill="#ffffff" d="M 82.621094 230.238281 L 114.699219 230.238281 L 114.699219 144.761719 L 82.621094 144.761719 L 82.621094 230.238281 " fill-opacity="1" fill-rule="nonzero"/></g><g clip-path="url(#3d720dafda)"><path fill="#ffffff" d="M 123.824219 233.980469 L 171.109375 280.796875 L 171.109375 94.203125 L 123.824219 141.015625 L 123.824219 233.980469 " fill-opacity="1" fill-rule="nonzero"/></g><path fill="#ffffff" d="M 217.9375 155.386719 L 238.992188 176.441406 L 260.050781 155.386719 C 267.417969 148.015625 278.472656 159.070312 271.105469 166.441406 L 250.046875 187.496094 L 271.105469 208.550781 C 278.472656 215.921875 267.417969 226.976562 260.050781 219.605469 L 238.992188 198.550781 L 217.9375 219.605469 C 210.566406 226.976562 199.511719 215.921875 206.882812 208.550781 L 227.9375 187.496094 L 206.882812 166.441406 C 199.511719 159.070312 210.566406 148.015625 217.9375 155.386719 Z M 217.9375 155.386719 " fill-opacity="1" fill-rule="evenodd"/></svg>