<svg xmlns="http://www.w3.org/2000/svg" xmlns:xlink="http://www.w3.org/1999/xlink" width="500" zoomAndPan="magnify" viewBox="0 0 375 374.999991" height="500" preserveAspectRatio="xMidYMid meet" version="1.0"><defs><clipPath id="e6545cdc28"><path d="M 82.527344 144 L 115 144 L 115 231 L 82.527344 231 Z M 82.527344 144 " clip-rule="nonzero"/></clipPath><clipPath id="813c361d3a"><path d="M 123 94.207031 L 172 94.207031 L 172 280.957031 L 123 280.957031 Z M 123 94.207031 " clip-rule="nonzero"/></clipPath></defs><path fill="#ffffff" d="M 216.433594 134.152344 C 213.464844 131.183594 208.65625 131.183594 205.6875 134.152344 C 202.714844 137.121094 202.714844 141.933594 205.6875 144.902344 C 217.0625 156.277344 223.332031 171.40625 223.332031 187.5 C 223.332031 203.589844 217.0625 218.714844 205.6875 230.09375 C 202.714844 233.066406 202.714844 237.875 205.6875 240.847656 C 207.171875 242.328125 209.113281 243.074219 211.0625 243.074219 C 213.003906 243.074219 214.949219 242.328125 216.433594 240.847656 C 230.683594 226.59375 238.535156 207.648438 238.535156 187.5 C 238.535156 167.34375 230.683594 148.398438 216.433594 134.152344 " fill-opacity="1" fill-rule="nonzero"/><path fill="#ffffff" d="M 246.410156 104.179688 C 243.4375 101.210938 238.628906 101.210938 235.660156 104.179688 C 232.6875 107.148438 232.6875 111.957031 235.660156 114.929688 C 275.671875 154.941406 275.671875 220.050781 235.660156 260.066406 C 232.6875 263.035156 232.6875 267.84375 235.660156 270.816406 C 237.144531 272.300781 239.089844 273.042969 241.035156 273.042969 C 242.980469 273.042969 244.921875 272.300781 246.410156 270.816406 C 292.351562 224.871094 292.351562 150.121094 246.410156 104.179688 " fill-opacity="1" fill-rule="nonzero"/><g clip-path="url(#e6545cdc28)"><path fill="#ffffff" d="M 82.621094 230.238281 L 114.699219 230.238281 L 114.699219 144.761719 L 82.621094 144.761719 L 82.621094 230.238281 " fill-opacity="1" fill-rule="nonzero"/></g><g clip-path="url(#813c361d3a)"><path fill="#ffffff" d="M 123.824219 233.980469 L 171.109375 280.796875 L 171.109375 94.203125 L 123.824219 141.015625 L 123.824219 233.980469 " fill-opacity="1" fill-rule="nonzero"/></g></svg>